<svg width="32" height="32" viewBox="0 0 32 32" fill="none" xmlns="http://www.w3.org/2000/svg">
<path fill-rule="evenodd" clip-rule="evenodd" d="M10.3755 4.32228C10.1302 4.11131 9.81657 3.99674 9.49303 3.99992L9.47991 3.99999H5.48073C5.29578 4.00022 5.11289 4.03893 4.94369 4.11367C4.77437 4.18846 4.62247 4.29769 4.49768 4.4344C4.37288 4.57111 4.27792 4.73231 4.21883 4.90774C4.16068 5.08038 4.13854 5.26309 4.15374 5.44456C4.57073 9.35331 5.90165 13.1091 8.03895 16.4084L8.04526 16.4182C9.9874 19.4746 12.5787 22.0658 15.635 24.008L15.6454 24.0146C18.9292 26.1441 22.6661 27.4747 26.5567 27.8996C26.7383 27.9146 26.9211 27.8923 27.0938 27.8339C27.2696 27.7744 27.4312 27.6788 27.568 27.5533C27.7048 27.4278 27.8139 27.2751 27.8883 27.105C27.9626 26.9348 28.0007 26.7511 27.9999 26.5654L27.9999 26.56V22.56C27.9999 22.549 28 22.5379 28.0003 22.5269C28.0084 22.2 27.8961 21.8814 27.6847 21.6319C27.4743 21.3836 27.1804 21.2209 26.8584 21.1743C25.4811 20.9921 24.1288 20.6549 22.8271 20.1692L22.8241 20.1681C22.5855 20.0784 22.3262 20.0589 22.0768 20.1121C21.8285 20.1651 21.6005 20.2878 21.4196 20.4659L19.7294 22.1561C19.305 22.5805 18.6493 22.6691 18.1275 22.3724C14.5808 20.3557 11.6442 17.4191 9.62752 13.8724C9.33083 13.3506 9.41935 12.6949 9.84377 12.2705L11.534 10.5803C11.7121 10.3994 11.8348 10.1714 11.8878 9.92305C11.9409 9.67374 11.9215 9.41442 11.8318 9.1758L11.8307 9.17279C11.345 7.87118 11.0079 6.51889 10.8257 5.14163C10.7794 4.8232 10.6196 4.53216 10.3755 4.32228ZM9.47401 1.33332C10.4421 1.32554 11.3802 1.66911 12.1143 2.30045C12.8503 2.93336 13.3309 3.81228 13.4668 4.77338L13.4685 4.78564C13.6241 5.96554 13.9126 7.12406 14.3286 8.23912C14.5972 8.95452 14.6552 9.7319 14.4958 10.4793C14.3363 11.2272 13.9657 11.9137 13.428 12.4575L13.4227 12.4628L12.4666 13.4189C14.0344 15.8784 16.1214 17.9655 18.581 19.5333L19.5424 18.5719C20.0862 18.0342 20.7727 17.6636 21.5206 17.5041C22.268 17.3447 23.0454 17.4027 23.7608 17.6713C24.8758 18.0873 26.0344 18.3758 27.2143 18.5314L27.2262 18.5331C28.1977 18.6701 29.085 19.1595 29.7192 19.908C30.3496 20.652 30.6863 21.6004 30.6666 22.5749V26.5573C30.6685 27.1134 30.5544 27.6637 30.3316 28.1733C30.1084 28.6836 29.7812 29.1418 29.3707 29.5183C28.9603 29.8949 28.4757 30.1815 27.9481 30.36C27.4204 30.5384 26.8613 30.6047 26.3066 30.5546C26.2986 30.5538 26.2905 30.5531 26.2825 30.5522C21.9744 30.0841 17.836 28.6124 14.1996 26.2553C10.8167 24.1047 7.94832 21.2362 5.79768 17.8533C3.43232 14.2004 1.96026 10.0418 1.5007 5.71412L1.49866 5.69332C1.44868 5.14025 1.51441 4.58284 1.69166 4.05657C1.86891 3.5303 2.1538 3.0467 2.52819 2.63656C2.90258 2.22643 3.35826 1.89874 3.86624 1.67436C4.37421 1.44999 4.92334 1.33384 5.47866 1.33332L9.47401 1.33332Z" fill="#DAE4F2"/>
</svg>
